<svg viewBox="0 0 39 33" xmlns="http://www.w3.org/2000/svg" data-sanitized-data-name="Layer 1" data-name="Layer 1" id="Layer_1">
  <defs>
    <style>
      .cls-1 {
        stroke-miterlimit: 10;
      }

      .cls-1, .cls-2 {
        fill: none;
        stroke: #000;
        stroke-linecap: round;
        stroke-width: 1.5px;
      }

      .cls-3 {
        fill: #747f81;
        stroke-width: 0px;
      }

      .cls-2 {
        stroke-linejoin: round;
      }
    </style>
  </defs>
  <path d="M26.55,8.69l-.36,2.67c-.04.32-.01.57.15.85.41.7.92,1.85,1.29,2.48,1.02,1.58,2.89.44,2.6-.9-.26-1.22-.51-2.32-.51-2.32,0,0,.24-1.1.42-1.83.33-1.37.42-2.86-.32-3.75-.74-.9-1.71-1.47-3.34-1.19-1.66.28-4.02.52-6.35,1.05-2.16.48-2.92,2.15-2.39,3.83.76,2.4,1.6,5.11,1.6,5.11,0,0-1.11,3.16-1.61,4.62-.63,1.9,2.03,3.18,2.89,1.34,0,0,1.91-3.48,2.35-4.27.44-.79.44-1.48.2-2.46-.23-.98-.7-3.46-.7-3.46l3.91-.52" class="cls-2"></path>
  <path d="M29.11,15.44l.82,1.16-.96,2.36-1.92,6.79" class="cls-2"></path>
  <path d="M28.97,18.95l-3.14-2.4" class="cls-2"></path>
  <path d="M10.14,12.78l5.43,4.16" class="cls-2"></path>
  <path d="M31.16,8.25c1.12.86,2.69.52,3.61-.67l.17-.22c.92-1.2.83-2.81-.29-3.66s-2.69-.52-3.61.67l-.17.22c-.92,1.2-.83,2.81.29,3.66Z" class="cls-1"></path>
  <path d="M30.8,22.56c1.46,1.73,1.58,4.3.15,6.17-1.65,2.15-4.74,2.56-6.89.91s-2.56-4.74-.91-6.89c1.26-1.65,3.36-2.27,5.24-1.74" class="cls-2"></path>
  <path d="M14.04,15.77c-1.65,2.15-4.74,2.56-6.89.91s-2.56-4.74-.91-6.89c1.48-1.93,4.1-2.46,6.18-1.37" class="cls-2"></path>
  <path d="M14.55,10.61c.42.86.58,1.82.47,2.77" class="cls-2"></path>
  <circle r="1.34" cy="26.18" cx="14.41" class="cls-3"></circle>
  <circle r="2.48" cy="22.36" cx="10.6" class="cls-3"></circle>
  <circle r="1.02" cy="4.95" cx="8.87" class="cls-3"></circle>
  <circle r="1.34" cy="24.13" cx="17.94" class="cls-3"></circle>
</svg>