<svg width="131" height="26" viewBox="0 0 131 26" fill="none" xmlns="http://www.w3.org/2000/svg">
<g clip-path="url(#clip0_3942_17512)">
<path d="M50.91 22.6805C50.82 22.9405 50.57 23.1205 50.28 23.1205H46.13C45.86 23.1205 45.72 22.9705 45.78 22.7405V22.6805L50.74 8.59047C50.83 8.33047 51.11 8.15047 51.37 8.15047H55.52C55.78 8.15047 55.93 8.30047 55.87 8.53047V8.59047L50.91 22.6805ZM56.99 5.29047C56.75 5.94047 56.38 6.17047 55.76 6.17047H52.52C51.96 6.17047 51.74 5.96047 51.85 5.49047C51.86 5.43047 51.88 5.34047 51.93 5.28047L53.12 1.87047C53.35 1.22047 53.7 0.980469 54.35 0.980469H57.56C58.12 0.980469 58.34 1.16047 58.23 1.66047L58.19 1.87047L57 5.28047L56.99 5.29047Z" fill="black"/>
<path d="M67.25 10.8612C67.16 11.1312 66.92 11.3012 66.62 11.3012H63L60.96 17.0412C60.81 17.4212 60.59 18.0112 60.49 18.4512C60.39 18.8912 60.39 19.2712 60.67 19.4812C60.86 19.6812 61.19 19.7712 61.78 19.7712C62.63 19.7712 63.34 19.6612 63.76 19.6012C63.79 19.6012 63.85 19.5712 63.88 19.5712C64.12 19.5712 64.14 19.7512 64.12 19.9512L63.79 22.0712L63.76 22.1912C63.69 22.4812 63.52 22.7212 63.11 22.8412C62.71 22.9312 61.23 23.3712 59.17 23.3712C55.87 23.3712 54.41 22.3112 55.07 19.4012C55.24 18.6312 55.57 17.8712 55.82 17.1312L60.44 3.92117C60.61 3.45117 60.84 3.19117 61.3 3.13117L65.36 2.48117C65.42 2.48117 65.51 2.45117 65.54 2.45117C65.84 2.45117 66.01 2.60117 65.93 2.92117C65.93 2.95117 65.89 2.98117 65.88 3.01117L64.26 7.69117H67.88C68.14 7.69117 68.29 7.84117 68.23 8.07117V8.13117L67.24 10.8612H67.25Z" fill="black"/>
<path d="M78.52 10.8612C78.43 11.1312 78.19 11.3012 77.89 11.3012H74.27L72.23 17.0412C72.08 17.4212 71.86 18.0112 71.76 18.4512C71.66 18.8912 71.66 19.2712 71.94 19.4812C72.13 19.6812 72.46 19.7712 73.05 19.7712C73.9 19.7712 74.61 19.6612 75.03 19.6012C75.06 19.6012 75.13 19.5712 75.15 19.5712C75.38 19.5712 75.41 19.7512 75.39 19.9512L75.05 22.0712L75.02 22.1912C74.95 22.4812 74.78 22.7212 74.37 22.8412C73.97 22.9312 72.48 23.3712 70.42 23.3712C67.12 23.3712 65.66 22.3112 66.32 19.4012C66.49 18.6312 66.82 17.8712 67.07 17.1312L71.69 3.92117C71.86 3.45117 72.09 3.19117 72.55 3.13117L76.61 2.48117C76.67 2.48117 76.76 2.45117 76.79 2.45117C77.08 2.45117 77.26 2.60117 77.18 2.92117C77.18 2.95117 77.14 2.98117 77.13 3.01117L75.51 7.69117H79.13C79.4 7.69117 79.54 7.84117 79.49 8.07117L79.47 8.13117L78.49 10.8612H78.52Z" fill="black"/>
<path d="M91.88 19.5912C90.29 21.9412 87.84 23.5012 83.37 23.5012C80.55 23.5012 78.98 22.8812 78.22 21.8512C77.46 20.8212 77.49 19.3812 77.88 17.6712C78.33 15.6712 79.42 12.7312 80.7 10.9612C82.3 8.72125 84.75 7.28125 89.04 7.28125C91.36 7.28125 92.86 7.69125 93.75 8.43125C94.96 9.46125 95.01 11.0512 94.54 13.0812C94.09 15.0512 93.08 17.8212 91.88 19.5812M89.21 11.0213C88.97 10.7913 88.53 10.6712 87.85 10.6712C85.88 10.6712 85.15 11.6712 84.25 14.0812C83.8 15.2913 83.3 16.5512 83.03 17.7612C82.84 18.5812 82.77 19.1712 83 19.5512C83.21 19.9312 83.7 20.1112 84.55 20.1112C86.64 20.1112 87.31 18.9913 88.31 16.2812C88.72 15.1312 89.16 13.9913 89.42 12.8412C89.62 11.9612 89.61 11.3412 89.22 11.0113" fill="black"/>
<path d="M106.48 10.3813C106.34 10.7313 106.21 11.0613 105.65 11.0613C104 11.0613 102.43 11.2713 102.21 11.2913L98.21 22.6813C98.12 22.9413 97.87 23.1213 97.58 23.1213H93.4C93.16 23.1213 92.99 22.9713 93.05 22.7413V22.6813L97.65 9.65133C98.01 8.59133 99.08 8.27133 100.93 7.92133C102.48 7.60133 104.53 7.36133 106.32 7.36133H106.85C107.12 7.36133 107.22 7.42133 107.31 7.54133C107.35 7.60133 107.39 7.71133 107.35 7.86133C107.34 7.92133 107.33 7.95133 107.28 8.01133L106.48 10.3913V10.3813Z" fill="black"/>
<path d="M109.35 22.6805C109.26 22.9405 109.01 23.1205 108.72 23.1205H104.57C104.3 23.1205 104.16 22.9705 104.21 22.7405V22.6805L109.17 8.59047C109.26 8.33047 109.53 8.15047 109.8 8.15047H113.95C114.22 8.15047 114.36 8.30047 114.31 8.53047L114.29 8.59047L109.35 22.6805ZM115.43 5.29047C115.19 5.94047 114.82 6.17047 114.2 6.17047H110.97C110.41 6.17047 110.19 5.96047 110.3 5.49047C110.31 5.43047 110.33 5.34047 110.37 5.28047L111.56 1.87047C111.79 1.22047 112.15 0.980469 112.79 0.980469H116C116.56 0.980469 116.78 1.16047 116.67 1.66047L116.62 1.87047L115.43 5.28047V5.29047Z" fill="black"/>
<path d="M129.38 13.2708L127.02 20.0108C126.23 22.3008 125.16 22.6608 122.99 23.1308C121.72 23.4008 120.34 23.5108 118.55 23.5108C116.76 23.5108 115.14 23.3908 114.01 22.7808C112.94 22.1908 112.35 21.1608 112.76 19.3708C113.02 18.2208 113.59 16.9008 114.46 15.9308C115.86 14.4308 117.65 14.0508 119.08 13.8408L124.38 13.0508C124.38 13.0508 124.67 12.2808 124.76 11.9008C124.85 11.4908 124.81 11.1608 124.5 10.9608C124.16 10.7808 123.5 10.6908 122.65 10.6908C120.83 10.6908 118.31 11.3108 117.56 11.4808C117.49 11.5108 117.41 11.5108 117.35 11.5108C117.17 11.5108 117.07 11.4508 117.09 11.2408L117.39 9.04078L117.41 8.95078C117.49 8.60078 117.73 8.48078 117.95 8.39078C118.62 8.16078 121.76 7.30078 124.99 7.30078C127.05 7.30078 128.42 7.60078 129.23 8.18078C130.2 8.83078 130.4 9.86078 130.11 11.1808C129.95 11.8608 129.64 12.5908 129.4 13.2708M120.64 16.3308C119.85 16.4508 119.14 16.6008 118.59 17.3308C118.27 17.7208 118.06 18.2508 117.95 18.7108C117.8 19.3608 117.95 19.7708 118.24 20.0008C118.61 20.3208 119.21 20.3808 119.74 20.3808C120.77 20.3808 121.79 20.1508 121.97 20.1208L123.43 15.9108L120.63 16.3208L120.64 16.3308Z" fill="black"/>
<path d="M47.6 8.15063H43.45C43.19 8.15063 42.91 8.32063 42.82 8.59063L40.21 16.0606L37.59 8.58063C37.5 8.32063 37.26 8.14062 36.96 8.14062H32.81C32.54 8.14062 32.4 8.29063 32.46 8.52063V8.58063L37.42 22.6706C37.51 22.9306 37.78 23.1106 38.05 23.1106H42.4C42.7 23.1106 42.94 22.9306 43.03 22.6706L47.94 8.58063L47.96 8.52063C48.01 8.28063 47.87 8.14062 47.61 8.14062" fill="black"/>
<path d="M30.54 1H26.43C25.86 1 25.57 1.19 25.4 1.71C25.4 1.71 24.48 4.66 24.48 4.68C20.57 17 13.84 25.23 7.84005 24.87C6.98005 24.82 6.14005 24.58 5.36005 24.17C6.27005 24.8 7.27005 25.24 8.33005 25.45C17.08 27.24 25.63 19.19 29.9 5.67C30.03 5.27 30.15 4.85 30.28 4.43L31.13 1.71L31.16 1.54C31.23 1.14 31.03 1 30.54 1Z" fill="#E42A2A"/>
<path d="M22.08 1H17.97C17.4 1 17.11 1.19 16.95 1.71C16.95 1.71 16.09 4.53 16.07 4.59C12.58 15.27 8.68002 20.35 5.22002 18.46C2.18002 16.81 0.41002 12.18 0.0600197 5.69H0.0300197C-0.23998 14.14 1.57002 20.92 5.20002 22.98C10.66 26.09 18.18 17.38 22.16 3.46L22.68 1.71L22.71 1.54C22.78 1.14 22.57 1 22.08 1Z" fill="black"/>
</g>
<defs>
<clipPath id="clip0_3942_17512">
<rect width="131" height="26" fill="white"/>
</clipPath>
</defs>
</svg>
